<?xml version="1.0" standalone="no"?><!DOCTYPE svg PUBLIC "-//W3C//DTD SVG 1.1//EN" "http://www.w3.org/Graphics/SVG/1.1/DTD/svg11.dtd"><svg t="1738751938448" class="icon" viewBox="0 0 1024 1024" version="1.1" xmlns="http://www.w3.org/2000/svg" p-id="1190" xmlns:xlink="http://www.w3.org/1999/xlink" width="200" height="200"><path d="M832 810.65984h-106.65984v-302.8992a2.8672 2.8672 0 0 0-5.61152-0.83968 128.04096 128.04096 0 0 1-129.26976 90.23488 132.87424 132.87424 0 0 1-121.11872-135.0656v-35.4304A298.65984 298.65984 0 0 0 170.65984 725.34016V768a170.65984 170.65984 0 0 0 170.68032 170.65984h152.69888a42.45504 42.45504 0 0 1-24.69888-38.4v-46.91968h85.31968v46.91968a42.45504 42.45504 0 0 1-24.69888 38.4h134.7584a42.45504 42.45504 0 0 1-24.71936-38.4v-46.91968h85.34016v46.91968a42.45504 42.45504 0 0 1-24.71936 38.4h131.3792a64 64 0 0 0 0-128zM554.65984 170.65984l-128 85.34016V94.16704a21.34016 21.34016 0 0 1 36.43392-15.07328l91.56608 91.56608zM640 170.65984L768 256V94.16704a21.34016 21.34016 0 0 0-36.41344-15.07328L640 170.65984z" fill="#636363" p-id="1191"></path><path d="M725.34016 170.65984H426.65984v128a170.65984 170.65984 0 1 0 341.34016 0v-128h-42.65984z m-202.67008 149.34016a31.98976 31.98976 0 1 1 0-64 31.98976 31.98976 0 0 1 0 64z m159.98976 0a31.98976 31.98976 0 1 1 0-64 31.98976 31.98976 0 0 1 0 64z" fill="#636363" p-id="1192"></path></svg>